USFL
nRows=128
nColumns=2
inDegrees=yes
endheader
time	soleus_r	
2.9375	 37.985751	
3	 38.012439	
3.0625	 38.061931	
3.125	 38.105112	
3.1875	 38.131304	
3.25	 38.086821	
3.3125	 38.145424	
3.375	 38.043665	
3.4375	 38.019820	
3.5	 38.036793	
3.5625	 37.955915	
3.625	 37.896768	
3.6875	 37.817486	
3.75	 37.831699	
3.8125	 37.908148	
3.875	 37.876242	
3.9375	 37.887284	
4	 37.929248	
4.0625	 37.907512	
4.125	 37.951247	
4.1875	 37.960713	
4.25	 37.883678	
4.3125	 37.862224	
4.375	 37.881632	
4.4375	 37.877552	
4.5	 37.825649	
4.5625	 37.724456	
4.625	 37.522982	
4.6875	 37.350635	
4.75	 37.488405	
4.8125	 37.397647	
4.875	 34.434203	
4.9375	 33.876455	
5	 33.942024	
5.0625	 33.756329	
5.125	 33.792341	
5.1875	 30.214771	
5.25	 30.268052	
5.3125	 30.324063	
5.375	 30.363839	
5.4375	 26.099226	
5.5	 25.889429	
5.5625	 25.794491	
5.625	 25.708746	
5.6875	 25.643228	
5.75	 25.502317	
5.8125	 25.419798	
5.875	 25.544115	
5.9375	 25.649269	
6	 25.811323	
6.0625	 25.877504	
6.125	 26.135092	
6.1875	 26.476561	
6.25	 26.668246	
6.3125	 26.727805	
6.375	 25.384904	
6.4375	 25.266938	
6.5	 25.319721	
6.5625	 25.401599	
6.625	 25.399785	
6.6875	 25.421290	
6.75	 25.351439	
6.8125	 25.310804	
6.875	 25.386636	
6.9375	 25.457485	
7	 25.418127	
7.0625	 25.434450	
7.125	 25.422036	
7.1875	 25.271578	
7.25	 25.224348	
7.3125	 25.075197	
7.375	 25.088991	
7.4375	 25.112483	
7.5	 25.104133	
7.5625	 25.052588	
7.625	 25.058528	
7.6875	 25.018485	
7.75	 24.934241	
7.8125	 24.858742	
7.875	 24.632847	
7.9375	 24.466547	
8	 24.391965	
8.0625	 24.381319	
8.125	 24.427666	
8.1875	 24.494871	
8.25	 24.579071	
8.3125	 24.599811	
8.375	 24.594499	
8.4375	 24.577246	
8.5	 24.505865	
8.5625	 24.477416	
8.625	 24.494000	
8.6875	 24.505169	
8.75	 24.620517	
8.8125	 24.672366	
8.875	 24.521413	
8.9375	 24.532248	
9	 24.492876	
9.0625	 24.397666	
9.125	 24.366942	
9.1875	 24.378557	
9.25	 24.366237	
9.3125	 24.404207	
9.375	 24.126683	
9.4375	 24.196454	
9.5	 24.147399	
9.5625	 24.169448	
9.625	 24.084343	
9.6875	 24.099374	
9.75	 24.000191	
9.8125	 23.951865	
9.875	 23.942266	
9.9375	 23.769055	
10	 23.735065	
10.0625	 23.713977	
10.125	 23.757278	
10.1875	 23.665139	
10.25	 23.718221	
10.3125	 23.814115	
10.375	 23.881130	
10.4375	 23.784269	
10.5	 24.209678	
10.5625	 24.069190	
10.625	 26.884500	
10.6875	 26.368952	
10.75	 31.451806	
10.8125	 31.399652	
10.875	 31.392880	
